# xmcd
#
# Track frame offsets:
#	150
#	13677
#	25744
#	37384
#	50658
#	62310
#	76272
#	87428
#	98192
#	112667
#	122988
#	133260
#	147621
#	158744
#	171095
#	182445
#	193940
#	205078
#	218248
#	229970
#	240485
#	252932
#	267058
#	279887
#	293823
#	306425
#	317475
#	329007
#	342800
#
# Disc length: 4750 seconds
#
# Revision: 1
# Processed by: cddbd v1.5.1PL0 Copyright (c) Steve Scherf et al.
# Submitted via: audiograbber 1.82.02
#
DISCID=a9128c1d
DTITLE=Various Artist - Roots Of Doo Wop, Vol 2
DYEAR=1900
DGENRE=Doo-Wop
TTITLE0=Orioles - It's Too Soon To Know
TTITLE1=Five Red Caps - Blueberry Hill
TTITLE2=Big Three Trio - Appetite Blues
TTITLE3=Blenders - Gone
TTITLE4=Five Blue Flames - Hot Dog
TTITLE5=Robins - If It's So Baby
TTITLE6=Orioles - I'd Rather Have You Under The Moon
TTITLE7=Cats and The Fiddle - Wine Drinker
TTITLE8=Robins - If I Didn't Love You So
TTITLE9=Ravens - Gotta Find My Baby
TTITLE10=Drifters - And I Shook
TTITLE11=Cardinals - Shouldn't I Know
TTITLE12=Five Royales(Royals) - Too Much Of A Little Bit
TTITLE13=Heartbreakers - Heartbreaker
TTITLE14=Dominoes - Sixty Minute Man
TTITLE15=Clovers - Fool Fool Fool
TTITLE16=Sultans - Lemon Squeezing Daddy
TTITLE17=Swallows - Will You Be Mine
TTITLE18=Dusty Brooks - Chili Dogs
TTITLE19=Dreamers - Can't Get You Off My Mind
TTITLE20=Royales - Give Me One More Chance
TTITLE21=Cabineers - Baby Where'd You Go
TTITLE22=Swallows - Roll, Roll Pretty Baby
TTITLE23=Clovers - Don't You Know I Love You
TTITLE24=Four Flames - Tabarin
TTITLE25=Clovers - I Got My Eyes On You
TTITLE26=Emeralds - See What You Done
TTITLE27=Emeralds - Starlight Starbright
TTITLE28=Emeralds - What If You
EXTD=
EXTT0=
EXTT1=
EXTT2=
EXTT3=
EXTT4=
EXTT5=
EXTT6=
EXTT7=
EXTT8=
EXTT9=
EXTT10=
EXTT11=
EXTT12=
EXTT13=
EXTT14=
EXTT15=
EXTT16=
EXTT17=
EXTT18=
EXTT19=
EXTT20=
EXTT21=
EXTT22=
EXTT23=
EXTT24=
EXTT25=
EXTT26=
EXTT27=
EXTT28=
PLAYORDER=
